<svg xmlns="http://www.w3.org/2000/svg" viewBox="0 0 24 24"><g fill="#303c42" data-name="Group User"><circle cx="12" cy="8.5" r="3.5"/><path d="M17.38 14.43A12 12 0 0 0 12 13a12 12 0 0 0-5.37 1.43A3 3 0 0 0 5 17.1v.46A1.43 1.43 0 0 0 6.43 19h11.14A1.43 1.43 0 0 0 19 17.56v-.46a3 3 0 0 0-1.62-2.67Z"/><circle cx="4.5" cy="7.5" r="2.5"/><circle cx="19.5" cy="7.5" r="2.5"/><path d="M22.92 11.53a6.94 6.94 0 0 0-3.42-1 6.94 6.94 0 0 0-3.42 1 2.05 2.05 0 0 0-.42.34.5.5 0 0 0 .19.82 15.09 15.09 0 0 1 2 .85 4 4 0 0 1 1.42 1.25.5.5 0 0 0 .41.21h3.27A1.12 1.12 0 0 0 24 13.84v-.32a2.3 2.3 0 0 0-1.08-1.99zM6.17 13.54a15 15 0 0 1 2-.85.5.5 0 0 0 .19-.82 2.06 2.06 0 0 0-.42-.34 6.94 6.94 0 0 0-3.42-1 6.94 6.94 0 0 0-3.42 1 2.3 2.3 0 0 0-1.08 2v.32A1.12 1.12 0 0 0 1.07 15h3.27a.5.5 0 0 0 .41-.21 4 4 0 0 1 1.42-1.25z"/></g></svg>